Description says it all!
Resolution for those who are blind: 1920x1080 progressive
Pls Comment and seed after download!


General
Format                           : MPEG-4
Format profile                   : Base Media / Version 2
Codec ID                         : mp42
File size                        : 140 MiB
Duration                         : 5mn 28s
Overall bit rate                 : 3 573 Kbps
Encoded date                     : UTC 2010-02-17 02:03:47
Tagged date                      : UTC 2010-02-17 02:03:47
gsst                             : 0
gstd                             : 329396
gssd                             : B4A7DA341HH

Video
ID                               : 2
Format                           : AVC
Format/Info                      : Advanced Video Codec
Format profile                   : High@L4.0
Format settings, CABAC           : Yes
Format settings, ReFrames        : 3 frames
Codec ID                         : avc1
Codec ID/Info                    : Advanced Video Coding
Duration                         : 5mn 28s
Bit rate mode                    : Variable
Bit rate                         : 3 446 Kbps
Maximum bit rate                 : 12.7 Mbps
Width                            : 1 920 pixels
Height                           : 1 080 pixels
Display aspect ratio             : 16:9
Frame rate mode                  : Constant
Frame rate                       : 25.000 fps
Resolution                       : 8 bits
Colorimetry                      : 4:2:0
Scan type                        : Progressive
Bits/(Pixel*Frame)               : 0.066
Stream size                      : 135 MiB (96%)
Encoded date                     : UTC 2010-02-17 02:03:47
Tagged date                      : UTC 2010-02-17 02:03:49

Audio
ID                               : 1
Format                           : AAC
Format/Info                      : Advanced Audio Codec
Format version                   : Version 4
Format profile                   : LC
Format settings, SBR             : No
Codec ID                         : 40
Duration                         : 5mn 28s
Bit rate mode                    : Variable
Bit rate                         : 124 Kbps
Maximum bit rate                 : 169 Kbps
Channel(s)                       : 2 channels
Channel positions                : L R
Sampling rate                    : 44.1 KHz
Stream size                      : 4.86 MiB (3%)
Encoded date                     : UTC 2010-02-17 02:03:47
Tagged date                      : UTC 2010-02-17 02:03:49

